<svg width="1024" height="1024" viewBox="0 0 1024 1024" fill="none" xmlns="http://www.w3.org/2000/svg">
<path d="M684.578 412.271C682.01 410.563 679.858 408.171 678.337 405.488C605.835 277.542 564.952 266.797 466.244 259.112C460.198 258.641 454.675 255.478 451.239 250.48L338.871 87C338.871 87 127.682 485.274 148.435 611.526C160.882 687.248 191.333 721.284 276.003 776.929C317.857 804.435 372.961 837.222 445.687 882.934C418.22 747.537 471.74 645.071 567.151 612.136C633.124 589.362 679.06 605.454 779.657 586.348C783.218 585.672 786.741 584.575 790.039 583.071C845.12 557.953 865.676 531.704 876 484.054C804.454 467.266 745.712 452.947 684.578 412.271Z" fill="#E65A3F"/>
<path d="M567.151 612.136C478.911 676.368 575.297 748.427 606.703 824.566C609.291 830.84 607.912 837.943 603.647 843.222L528.698 936C498.744 916.51 471.136 898.931 445.687 882.934M567.151 612.136C633.124 589.362 679.06 605.454 779.657 586.348C783.218 585.672 786.741 584.575 790.039 583.071C845.12 557.953 865.676 531.704 876 484.054C804.454 467.266 745.712 452.947 684.578 412.271C682.01 410.563 679.858 408.171 678.337 405.488C605.835 277.542 564.952 266.797 466.244 259.112C460.198 258.641 454.675 255.478 451.239 250.48L338.871 87C338.871 87 127.682 485.274 148.435 611.526C160.882 687.248 191.333 721.284 276.003 776.929C317.857 804.435 372.961 837.222 445.687 882.934M567.151 612.136C471.74 645.071 418.22 747.537 445.687 882.934" stroke="#E65A3F" stroke-width="30"/>
<path d="M617.323 462.432C623.142 468.328 632.639 468.392 638.536 462.573C644.432 456.755 644.496 447.257 638.677 441.36L628 451.896L617.323 462.432ZM276 806L291 806.112C292.203 644.806 346.488 527.645 413.876 467.166C447.523 436.968 483.966 421.238 518.653 420.07C553.062 418.913 587.303 432.009 617.323 462.432L628 451.896L638.677 441.36C603.28 405.488 561.119 388.624 517.644 390.087C474.449 391.541 431.529 411.012 393.838 444.839C318.547 512.412 262.249 638.599 261 805.888L276 806Z" fill="white"/>
</svg>
