<svg width="1024" height="1024" viewBox="0 0 1024 1024" fill="none" xmlns="http://www.w3.org/2000/svg">
<path d="M351.233 78.5029L463.601 241.983C464.45 243.218 465.842 244.035 467.409 244.157C516.596 247.987 554.951 252.671 590.032 274.46C624.99 296.172 654.865 333.639 691.388 398.093C691.838 398.888 692.423 399.474 692.888 399.783C751.507 438.785 807.766 452.635 879.427 469.45L893.782 472.819L890.66 487.23C885.171 512.566 876.652 533.594 861.231 551.729C845.94 569.711 824.852 583.682 796.263 596.719C791.818 598.746 787.139 600.195 782.456 601.085C730.901 610.877 693.202 611.648 660.982 612.856C629.607 614.033 604.008 615.627 574.189 625.588C555.646 639.55 548.462 652.531 546.477 664.229C544.345 676.786 547.671 690.837 555.595 707.419C563.551 724.07 575.085 741.21 587.42 760.076C599.434 778.451 612.107 798.33 620.569 818.846C625.477 830.744 622.634 843.589 615.315 852.648L540.366 945.426L531.861 955.954L520.517 948.573C490.64 929.133 463.099 911.596 437.704 895.634C378.082 858.158 329.697 829.003 291.017 804.454C292.579 644.003 346.72 527.437 413.876 467.166C447.524 436.968 483.966 421.238 518.653 420.07C553.062 418.912 587.303 432.009 617.323 462.432C623.142 468.328 632.639 468.392 638.536 462.573C644.433 456.755 644.495 447.257 638.677 441.36C603.28 405.488 561.119 388.625 517.645 390.088C474.449 391.542 431.529 411.013 393.838 444.84C321.671 509.608 266.955 628.228 261.439 785.277C222.18 759.132 193.64 736.644 173.378 711.071C151.642 683.638 140.152 653.611 133.634 613.959C127.816 578.568 138.233 526.938 155.094 471.911C172.211 416.047 196.913 353.845 222.117 295.933C247.347 237.962 273.212 183.997 292.757 144.544C302.533 124.81 310.736 108.689 316.501 97.4932C319.384 91.8946 321.657 87.5262 323.213 84.5518C323.991 83.0647 324.59 81.9262 324.995 81.1562C325.198 80.7713 325.352 80.4783 325.457 80.2803C325.509 80.1814 325.549 80.106 325.576 80.0547C325.59 80.029 325.6 80.0087 325.607 79.9951C325.611 79.9885 325.614 79.9828 325.616 79.9795C325.63 79.9816 326.015 80.1831 338.871 87L325.619 79.9727L337.214 58.1074L351.233 78.5029ZM517.15 657.82C466.673 701.519 441.299 777.257 459.174 873.7C479.857 886.728 501.943 900.79 525.524 916.058L591.979 833.796C593.19 832.296 593.104 830.935 592.836 830.285C585.595 812.731 574.444 795.05 562.311 776.493C550.498 758.427 537.561 739.263 528.525 720.353C519.457 701.374 513.268 680.608 516.9 659.209C516.979 658.745 517.063 658.282 517.15 657.82Z" fill="#8A221C"/>
</svg>
