<svg width="1024" height="1024" viewBox="0 0 1024 1024" fill="none" xmlns="http://www.w3.org/2000/svg">
<path d="M567.151 612.136C478.911 676.368 575.297 748.427 606.703 824.565C609.291 830.84 607.912 837.943 603.647 843.222L528.698 936C498.744 916.51 471.136 898.931 445.687 882.934M567.151 612.136C633.124 589.362 679.06 605.454 779.657 586.348C783.218 585.672 786.741 584.575 790.039 583.071C845.12 557.953 865.676 531.704 876 484.054C804.454 467.266 745.712 452.947 684.578 412.271C682.01 410.563 679.858 408.171 678.337 405.488C605.835 277.542 564.952 266.797 466.244 259.112C460.198 258.641 454.675 255.478 451.239 250.48L338.872 87C338.872 87 127.682 485.274 148.435 611.526C160.882 687.248 191.333 721.284 276.003 776.929M567.151 612.136C471.74 645.071 418.22 747.537 445.687 882.934M445.687 882.934C372.961 837.222 317.857 804.435 276.003 776.929M276.003 776.929C278.452 472.325 496.901 325.768 627.578 448.679" stroke="#E65A3F" stroke-width="30" stroke-linecap="round"/>
</svg>
